<?xml version="1.0" standalone="no"?>
<!DOCTYPE svg PUBLIC "-//W3C//DTD SVG 20010904//EN"
        "http://www.w3.org/TR/2001/REC-SVG-20010904/DTD/svg10.dtd">
<svg version="1.0" xmlns="http://www.w3.org/2000/svg"
     width="256.000000pt" height="256.000000pt" viewBox="0 0 256.000000 256.000000"
     preserveAspectRatio="xMidYMid meet">
    <metadata>
        Created by potrace 1.16, written by Peter Selinger 2001-2019
    </metadata>
    <g transform="translate(0.000000,256.000000) scale(0.100000,-0.100000)"
       fill="#ff0000" stroke="none">
        <path d="M1108 2553 c-69 -5 -66 9 -38 -188 28 -204 49 -453 57 -669 l6 -190
-49 29 c-143 83 -605 406 -728 508 l-48 41 -34 -40 c-77 -90 -204 -304 -204
-344 0 -4 44 -26 98 -48 323 -136 808 -369 806 -388 -3 -24 -488 -261 -738
-361 -171 -67 -163 -51 -99 -200 33 -76 91 -172 148 -247 13 -18 23 -12 173
102 228 172 642 452 669 452 18 0 -23 -554 -62 -824 -12 -89 -21 -163 -19
-165 11 -13 191 -20 283 -11 139 14 176 23 174 41 -44 338 -70 598 -79 809 -6
130 -5 152 7 145 208 -123 531 -347 740 -512 43 -35 81 -63 84 -63 13 0 121
179 161 269 66 147 74 131 -106 205 -168 68 -534 239 -669 313 -62 33 -80 48
-70 55 85 57 869 418 909 418 18 0 10 24 -39 117 -47 88 -154 247 -184 271
-11 9 -27 0 -78 -41 -127 -105 -553 -404 -723 -507 l-39 -24 6 180 c7 195 27
424 57 659 11 83 20 157 20 166 0 13 -16 20 -63 28 -74 13 -247 20 -329 14z"/>
    </g>
</svg>
